frame:0    pts:0       pts_time:0
lavfi.scene_score=0.000000
frame:1    pts:1536    pts_time:0.1
lavfi.scene_score=0.137688
frame:2    pts:32256   pts_time:2.1
lavfi.scene_score=0.259148
frame:3    pts:56832   pts_time:3.7
lavfi.scene_score=0.236153
frame:4    pts:110080  pts_time:7.166667
lavfi.scene_score=0.185858
frame:5    pts:124416  pts_time:8.1
lavfi.scene_score=0.225976
frame:6    pts:172544  pts_time:11.233333
lavfi.scene_score=0.236547
frame:7    pts:279552  pts_time:18.2
lavfi.scene_score=0.298798
frame:8    pts:296448  pts_time:19.3
lavfi.scene_score=0.219006
frame:9    pts:350720  pts_time:22.833333
lavfi.scene_score=0.163090
frame:10   pts:462336  pts_time:30.1
lavfi.scene_score=0.106027
frame:11   pts:462848  pts_time:30.133333
lavfi.scene_score=0.060508
frame:12   pts:595456  pts_time:38.766667
lavfi.scene_score=0.292942
frame:13   pts:653312  pts_time:42.533333
lavfi.scene_score=0.308720
frame:14   pts:729088  pts_time:47.466667
lavfi.scene_score=0.321831
frame:15   pts:758784  pts_time:49.4
lavfi.scene_score=0.153617
frame:16   pts:759296  pts_time:49.433333
lavfi.scene_score=0.044170
frame:17   pts:760832  pts_time:49.533333
lavfi.scene_score=0.315737
frame:18   pts:761344  pts_time:49.566667
lavfi.scene_score=0.188900
frame:19   pts:761856  pts_time:49.6
lavfi.scene_score=0.067827
frame:20   pts:763392  pts_time:49.7
lavfi.scene_score=0.078292
frame:21   pts:839680  pts_time:54.666667
lavfi.scene_score=0.335920
frame:22   pts:869376  pts_time:56.6
lavfi.scene_score=0.324123
frame:23   pts:983040  pts_time:64
lavfi.scene_score=0.285447
frame:24   pts:1090048 pts_time:70.966667
lavfi.scene_score=0.192142
frame:25   pts:1090560 pts_time:71
lavfi.scene_score=0.063158
frame:26   pts:1186816 pts_time:77.266667
lavfi.scene_score=0.227418
frame:27   pts:1280000 pts_time:83.333333
lavfi.scene_score=0.091636
frame:28   pts:1280512 pts_time:83.366667
lavfi.scene_score=0.129618
frame:29   pts:1353216 pts_time:88.1
lavfi.scene_score=0.335727
frame:30   pts:1504256 pts_time:97.933333
lavfi.scene_score=0.235133
frame:31   pts:1522176 pts_time:99.1
lavfi.scene_score=0.269677
frame:32   pts:1630208 pts_time:106.133333
lavfi.scene_score=0.258923
frame:33   pts:1680896 pts_time:109.433333
lavfi.scene_score=0.185530
frame:34   pts:1806336 pts_time:117.6
lavfi.scene_score=0.277441
frame:35   pts:1934336 pts_time:125.933333
lavfi.scene_score=0.268516
frame:36   pts:2050048 pts_time:133.466667
lavfi.scene_score=0.262049
frame:37   pts:2167296 pts_time:141.1
lavfi.scene_score=0.295565
frame:38   pts:2294784 pts_time:149.4
lavfi.scene_score=0.299745
frame:39   pts:2318848 pts_time:150.966667
lavfi.scene_score=0.361120
frame:40   pts:2418688 pts_time:157.466667
lavfi.scene_score=0.272817
frame:41   pts:2501120 pts_time:162.833333
lavfi.scene_score=0.199508
frame:42   pts:2598912 pts_time:169.2
lavfi.scene_score=0.312359
frame:43   pts:2651648 pts_time:172.633333
lavfi.scene_score=0.271395
frame:44   pts:2698240 pts_time:175.666667
lavfi.scene_score=0.234809
frame:45   pts:2781696 pts_time:181.1
lavfi.scene_score=0.184515
frame:46   pts:2867200 pts_time:186.666667
lavfi.scene_score=0.451883
frame:47   pts:2925056 pts_time:190.433333
lavfi.scene_score=0.492558
frame:48   pts:3062784 pts_time:199.4
lavfi.scene_score=0.270138
frame:49   pts:3181568 pts_time:207.133333
lavfi.scene_score=0.263968
frame:50   pts:3257856 pts_time:212.1
lavfi.scene_score=0.208646
frame:51   pts:3341312 pts_time:217.533333
lavfi.scene_score=0.316720
frame:52   pts:3442176 pts_time:224.1
lavfi.scene_score=0.306252
frame:53   pts:3500544 pts_time:227.9
lavfi.scene_score=0.257994
frame:54   pts:3645440 pts_time:237.333333
lavfi.scene_score=0.245946
frame:55   pts:3779584 pts_time:246.066667
lavfi.scene_score=0.314596
frame:56   pts:3820032 pts_time:248.7
lavfi.scene_score=0.312742
frame:57   pts:3924480 pts_time:255.5
lavfi.scene_score=0.226037
frame:58   pts:3969024 pts_time:258.4
lavfi.scene_score=0.230058
frame:59   pts:3987968 pts_time:259.633333
lavfi.scene_score=0.155819
frame:60   pts:3994624 pts_time:260.066667
lavfi.scene_score=0.123997
frame:61   pts:4011520 pts_time:261.166667
lavfi.scene_score=0.127168
frame:62   pts:4088832 pts_time:266.2
lavfi.scene_score=0.312235
frame:63   pts:4131328 pts_time:268.966667
lavfi.scene_score=0.322555
frame:64   pts:4253184 pts_time:276.9
lavfi.scene_score=0.287937
frame:65   pts:4272640 pts_time:278.166667
lavfi.scene_score=0.505294
frame:66   pts:4354560 pts_time:283.5
lavfi.scene_score=0.232054
frame:67   pts:4452352 pts_time:289.866667
lavfi.scene_score=0.253116
frame:68   pts:4548608 pts_time:296.133333
lavfi.scene_score=0.288254
frame:69   pts:4621312 pts_time:300.866667
lavfi.scene_score=0.052560
frame:70   pts:4694016 pts_time:305.6
lavfi.scene_score=0.054929
frame:71   pts:4715520 pts_time:307
lavfi.scene_score=0.489469
frame:72   pts:4833792 pts_time:314.7
lavfi.scene_score=0.314361
frame:73   pts:4834304 pts_time:314.733333
lavfi.scene_score=0.146409
frame:74   pts:4834816 pts_time:314.766667
lavfi.scene_score=0.588814
frame:75   pts:4835328 pts_time:314.8
lavfi.scene_score=0.064073
frame:76   pts:4837888 pts_time:314.966667
lavfi.scene_score=0.040512
frame:77   pts:4854272 pts_time:316.033333
lavfi.scene_score=0.217606
frame:78   pts:4946944 pts_time:322.066667
lavfi.scene_score=0.269290
frame:79   pts:4970496 pts_time:323.6
lavfi.scene_score=0.268750
frame:80   pts:5051904 pts_time:328.9
lavfi.scene_score=0.530969
frame:81   pts:5158400 pts_time:335.833333
lavfi.scene_score=0.466197
frame:82   pts:5224448 pts_time:340.133333
lavfi.scene_score=0.460596
frame:83   pts:5346304 pts_time:348.066667
lavfi.scene_score=0.301007
frame:84   pts:5401600 pts_time:351.666667
lavfi.scene_score=0.286119
frame:85   pts:5486592 pts_time:357.2
lavfi.scene_score=0.257692
frame:86   pts:5565952 pts_time:362.366667
lavfi.scene_score=0.557378
frame:87   pts:5691904 pts_time:370.566667
lavfi.scene_score=0.216143
frame:88   pts:5739520 pts_time:373.666667
lavfi.scene_score=0.216448
frame:89   pts:5766656 pts_time:375.433333
lavfi.scene_score=0.071679
frame:90   pts:5767168 pts_time:375.466667
lavfi.scene_score=0.064528
frame:91   pts:5767680 pts_time:375.5
lavfi.scene_score=0.168361
frame:92   pts:5768704 pts_time:375.566667
lavfi.scene_score=0.069201
frame:93   pts:5770240 pts_time:375.666667
lavfi.scene_score=0.084191
frame:94   pts:5770752 pts_time:375.7
lavfi.scene_score=0.139687
frame:95   pts:5771776 pts_time:375.766667
lavfi.scene_score=0.051395
frame:96   pts:5870080 pts_time:382.166667
lavfi.scene_score=0.327244
frame:97   pts:5902848 pts_time:384.3
lavfi.scene_score=0.374547
frame:98   pts:5960192 pts_time:388.033333
lavfi.scene_score=0.237431
frame:99   pts:5981184 pts_time:389.4
lavfi.scene_score=0.060793
frame:100  pts:6020096 pts_time:391.933333
lavfi.scene_score=0.220805
frame:101  pts:6085120 pts_time:396.166667
lavfi.scene_score=0.189488
frame:102  pts:6155776 pts_time:400.766667
lavfi.scene_score=0.232384
frame:103  pts:6232576 pts_time:405.766667
lavfi.scene_score=0.046519
frame:104  pts:6289920 pts_time:409.5
lavfi.scene_score=0.226860
frame:105  pts:6446080 pts_time:419.666667
lavfi.scene_score=0.245352
frame:106  pts:6579712 pts_time:428.366667
lavfi.scene_score=0.307763
frame:107  pts:6605824 pts_time:430.066667
lavfi.scene_score=0.323675
frame:108  pts:6737920 pts_time:438.666667
lavfi.scene_score=0.168272
frame:109  pts:6739456 pts_time:438.766667
lavfi.scene_score=0.065085
frame:110  pts:6739968 pts_time:438.8
lavfi.scene_score=0.046129
frame:111  pts:6740992 pts_time:438.866667
lavfi.scene_score=0.043198
frame:112  pts:6742528 pts_time:438.966667
lavfi.scene_score=0.040180
frame:113  pts:6824960 pts_time:444.333333
lavfi.scene_score=0.078425
frame:114  pts:6825472 pts_time:444.366667
lavfi.scene_score=0.057217
frame:115  pts:6889472 pts_time:448.533333
lavfi.scene_score=0.246668
frame:116  pts:6945792 pts_time:452.2
lavfi.scene_score=0.273856
frame:117  pts:7052288 pts_time:459.133333
lavfi.scene_score=0.289412
frame:118  pts:7090688 pts_time:461.633333
lavfi.scene_score=0.304581
frame:119  pts:7115776 pts_time:463.266667
lavfi.scene_score=0.054235
frame:120  pts:7179776 pts_time:467.433333
lavfi.scene_score=0.163987
frame:121  pts:7186432 pts_time:467.866667
lavfi.scene_score=0.276861
frame:122  pts:7235072 pts_time:471.033333
lavfi.scene_score=0.321748
frame:123  pts:7335936 pts_time:477.6
lavfi.scene_score=0.263004
frame:124  pts:7461888 pts_time:485.8
lavfi.scene_score=0.314398
frame:125  pts:7541760 pts_time:491
lavfi.scene_score=0.222210
frame:126  pts:7638016 pts_time:497.266667
lavfi.scene_score=0.283635
frame:127  pts:7809024 pts_time:508.4
lavfi.scene_score=0.266108
frame:128  pts:7942144 pts_time:517.066667
lavfi.scene_score=0.213554
frame:129  pts:7970304 pts_time:518.9
lavfi.scene_score=0.121114
frame:130  pts:7971840 pts_time:519
lavfi.scene_score=0.116161
frame:131  pts:7972352 pts_time:519.033333
lavfi.scene_score=0.100947
frame:132  pts:7973888 pts_time:519.133333
lavfi.scene_score=0.056114
frame:133  pts:8028160 pts_time:522.666667
lavfi.scene_score=0.181596
frame:134  pts:8038400 pts_time:523.333333
lavfi.scene_score=0.182474
frame:135  pts:8136704 pts_time:529.733333
lavfi.scene_score=0.252556
frame:136  pts:8240128 pts_time:536.466667
lavfi.scene_score=0.368307
frame:137  pts:8306176 pts_time:540.766667
lavfi.scene_score=0.268005
frame:138  pts:8355328 pts_time:543.966667
lavfi.scene_score=0.261172
frame:139  pts:8451072 pts_time:550.2
lavfi.scene_score=0.266540
frame:140  pts:8508928 pts_time:553.966667
lavfi.scene_score=0.206834
frame:141  pts:8509440 pts_time:554
lavfi.scene_score=0.084510
frame:142  pts:8598016 pts_time:559.766667
lavfi.scene_score=0.245306
frame:143  pts:8675840 pts_time:564.833333
lavfi.scene_score=0.330192
frame:144  pts:8792576 pts_time:572.433333
lavfi.scene_score=0.197610
frame:145  pts:8793088 pts_time:572.466667
lavfi.scene_score=0.066883
frame:146  pts:8936960 pts_time:581.833333
lavfi.scene_score=0.341121
frame:147  pts:9070080 pts_time:590.5
lavfi.scene_score=0.401038
frame:148  pts:9218560 pts_time:600.166667
lavfi.scene_score=0.276052
frame:149  pts:9346560 pts_time:608.5
lavfi.scene_score=0.265995
frame:150  pts:9373184 pts_time:610.233333
lavfi.scene_score=0.494413
frame:151  pts:9480192 pts_time:617.2
lavfi.scene_score=0.269674
frame:152  pts:9653760 pts_time:628.5
lavfi.scene_score=0.253929
frame:153  pts:9797632 pts_time:637.866667
lavfi.scene_score=0.172916
frame:154  pts:9798144 pts_time:637.9
lavfi.scene_score=0.158309
frame:155  pts:9889280 pts_time:643.833333
lavfi.scene_score=0.241226
frame:156  pts:9978368 pts_time:649.633333
lavfi.scene_score=0.162504
frame:157  pts:9978880 pts_time:649.666667
lavfi.scene_score=0.040571
frame:158  pts:9981952 pts_time:649.866667
lavfi.scene_score=0.100832
frame:159  pts:9982464 pts_time:649.9
lavfi.scene_score=0.082534
frame:160  pts:9982976 pts_time:649.933333
lavfi.scene_score=0.073477
frame:161  pts:10072576 pts_time:655.766667
lavfi.scene_score=0.348032
frame:162  pts:10139136 pts_time:660.1
lavfi.scene_score=0.221373
frame:163  pts:10205696 pts_time:664.433333
lavfi.scene_score=0.217449
frame:164  pts:10351616 pts_time:673.933333
lavfi.scene_score=0.255688
frame:165  pts:10455552 pts_time:680.7
lavfi.scene_score=0.432635
frame:166  pts:10583552 pts_time:689.033333
lavfi.scene_score=0.259281
frame:167  pts:10663424 pts_time:694.233333
lavfi.scene_score=0.245727
frame:168  pts:10663936 pts_time:694.266667
lavfi.scene_score=0.111577
frame:169  pts:10716160 pts_time:697.666667
lavfi.scene_score=0.100814
frame:170  pts:10718208 pts_time:697.8
lavfi.scene_score=0.058507
frame:171  pts:10719232 pts_time:697.866667
lavfi.scene_score=0.044073
frame:172  pts:10742272 pts_time:699.366667
lavfi.scene_score=0.043993
frame:173  pts:10747392 pts_time:699.7
lavfi.scene_score=0.073608
frame:174  pts:10751488 pts_time:699.966667
lavfi.scene_score=0.051607
frame:175  pts:10756096 pts_time:700.266667
lavfi.scene_score=0.058852
frame:176  pts:10757120 pts_time:700.333333
lavfi.scene_score=0.043663
frame:177  pts:10770944 pts_time:701.233333
lavfi.scene_score=0.245497
frame:178  pts:10780160 pts_time:701.833333
lavfi.scene_score=0.042142
frame:179  pts:10785280 pts_time:702.166667
lavfi.scene_score=0.071212
frame:180  pts:10789376 pts_time:702.433333
lavfi.scene_score=0.053134
frame:181  pts:10793984 pts_time:702.733333
lavfi.scene_score=0.059340
frame:182  pts:10795008 pts_time:702.8
lavfi.scene_score=0.044467
frame:183  pts:10796032 pts_time:702.866667
lavfi.scene_score=0.041802
frame:184  pts:10818048 pts_time:704.3
lavfi.scene_score=0.042926
frame:185  pts:10823168 pts_time:704.633333
lavfi.scene_score=0.071028
frame:186  pts:10827264 pts_time:704.9
lavfi.scene_score=0.052422
frame:187  pts:10831872 pts_time:705.2
lavfi.scene_score=0.059862
frame:188  pts:10832896 pts_time:705.266667
lavfi.scene_score=0.043843
frame:189  pts:10833920 pts_time:705.333333
lavfi.scene_score=0.042592
frame:190  pts:10855936 pts_time:706.766667
lavfi.scene_score=0.042067
frame:191  pts:10860544 pts_time:707.066667
lavfi.scene_score=0.171586
frame:192  pts:10861568 pts_time:707.133333
lavfi.scene_score=0.197770
frame:193  pts:10862080 pts_time:707.166667
lavfi.scene_score=0.063601
frame:194  pts:10869248 pts_time:707.633333
lavfi.scene_score=0.146967
frame:195  pts:10962432 pts_time:713.7
lavfi.scene_score=0.245960
frame:196  pts:11027968 pts_time:717.966667
lavfi.scene_score=0.293551
frame:197  pts:11162112 pts_time:726.7
lavfi.scene_score=0.305529
frame:198  pts:11210752 pts_time:729.866667
lavfi.scene_score=0.257609
frame:199  pts:11284480 pts_time:734.666667
lavfi.scene_score=0.168589
frame:200  pts:11343872 pts_time:738.533333
lavfi.scene_score=0.152208
frame:201  pts:11372032 pts_time:740.366667
lavfi.scene_score=0.214222
frame:202  pts:11396096 pts_time:741.933333
lavfi.scene_score=0.339548
frame:203  pts:11485184 pts_time:747.733333
lavfi.scene_score=0.348076
frame:204  pts:11589632 pts_time:754.533333
lavfi.scene_score=0.196440
frame:205  pts:11590656 pts_time:754.6
lavfi.scene_score=0.057543
frame:206  pts:11592704 pts_time:754.733333
lavfi.scene_score=0.102621
frame:207  pts:11593216 pts_time:754.766667
lavfi.scene_score=0.096554
frame:208  pts:11594240 pts_time:754.833333
lavfi.scene_score=0.100683
frame:209  pts:11708416 pts_time:762.266667
lavfi.scene_score=0.258273
frame:210  pts:11812864 pts_time:769.066667
lavfi.scene_score=0.279555
frame:211  pts:11831296 pts_time:770.266667
lavfi.scene_score=0.220053
frame:212  pts:11940864 pts_time:777.4
lavfi.scene_score=0.226019
frame:213  pts:12018176 pts_time:782.433333
lavfi.scene_score=0.283052
frame:214  pts:12059136 pts_time:785.1
lavfi.scene_score=0.624051
frame:215  pts:12120064 pts_time:789.066667
lavfi.scene_score=0.267102
frame:216  pts:12275200 pts_time:799.166667
lavfi.scene_score=0.253097
frame:217  pts:12347392 pts_time:803.866667
lavfi.scene_score=0.192900
frame:218  pts:12404736 pts_time:807.6
lavfi.scene_score=0.449235
frame:219  pts:12471296 pts_time:811.933333
lavfi.scene_score=0.199574
frame:220  pts:12471808 pts_time:811.966667
lavfi.scene_score=0.049284
frame:221  pts:12496896 pts_time:813.6
lavfi.scene_score=0.399326
frame:222  pts:12689408 pts_time:826.133333
lavfi.scene_score=0.155630
frame:223  pts:12691968 pts_time:826.3
lavfi.scene_score=0.368326
frame:224  pts:12696576 pts_time:826.6
lavfi.scene_score=0.162267
frame:225  pts:12825600 pts_time:835
lavfi.scene_score=0.278951
frame:226  pts:12873216 pts_time:838.1
lavfi.scene_score=0.381834
frame:227  pts:12958720 pts_time:843.666667
lavfi.scene_score=0.305991
frame:228  pts:12992000 pts_time:845.833333
lavfi.scene_score=0.062434
frame:229  pts:13079040 pts_time:851.5
lavfi.scene_score=0.209742
frame:230  pts:13092352 pts_time:852.366667
lavfi.scene_score=0.273307
frame:231  pts:13155840 pts_time:856.5
lavfi.scene_score=0.262193
frame:232  pts:13187072 pts_time:858.533333
lavfi.scene_score=0.053039
frame:233  pts:13189120 pts_time:858.666667
lavfi.scene_score=0.181169
frame:234  pts:13195264 pts_time:859.066667
lavfi.scene_score=0.298711
frame:235  pts:13195776 pts_time:859.1
lavfi.scene_score=0.097314
frame:236  pts:13284864 pts_time:864.9
lavfi.scene_score=0.240473
frame:237  pts:13337088 pts_time:868.3
lavfi.scene_score=0.222742
frame:238  pts:13454336 pts_time:875.933333
lavfi.scene_score=0.234848
frame:239  pts:13569536 pts_time:883.433333
lavfi.scene_score=0.236665
frame:240  pts:13644288 pts_time:888.3
lavfi.scene_score=0.281079
frame:241  pts:13649920 pts_time:888.666667
lavfi.scene_score=0.050596
frame:242  pts:13650432 pts_time:888.7
lavfi.scene_score=0.136977
frame:243  pts:13660672 pts_time:889.366667
lavfi.scene_score=0.041175
frame:244  pts:13716992 pts_time:893.033333
lavfi.scene_score=0.220190
frame:245  pts:13718016 pts_time:893.1
lavfi.scene_score=0.155202
frame:246  pts:13810688 pts_time:899.133333
lavfi.scene_score=0.236008
frame:247  pts:13902848 pts_time:905.133333
lavfi.scene_score=0.278220
frame:248  pts:13968896 pts_time:909.433333
lavfi.scene_score=0.216558
frame:249  pts:14066176 pts_time:915.766667
lavfi.scene_score=0.232424
frame:250  pts:14150144 pts_time:921.233333
lavfi.scene_score=0.241017
frame:251  pts:14173184 pts_time:922.733333
lavfi.scene_score=0.114553
frame:252  pts:14178304 pts_time:923.066667
lavfi.scene_score=0.226501
frame:253  pts:14225920 pts_time:926.166667
lavfi.scene_score=0.415982
frame:254  pts:14294016 pts_time:930.6
lavfi.scene_score=0.316933
frame:255  pts:14358528 pts_time:934.8
lavfi.scene_score=0.301282
frame:256  pts:14448640 pts_time:940.666667
lavfi.scene_score=0.284061
frame:257  pts:14539776 pts_time:946.6
lavfi.scene_score=0.307746
frame:258  pts:14604800 pts_time:950.833333
lavfi.scene_score=0.369514
frame:259  pts:14732800 pts_time:959.166667
lavfi.scene_score=0.296206
frame:260  pts:14841856 pts_time:966.266667
lavfi.scene_score=0.220011
frame:261  pts:14929920 pts_time:972
lavfi.scene_score=0.264614
frame:262  pts:14976000 pts_time:975
lavfi.scene_score=0.288405
frame:263  pts:15014400 pts_time:977.5
lavfi.scene_score=0.290451
frame:264  pts:15077376 pts_time:981.6
lavfi.scene_score=0.336985
frame:265  pts:15174656 pts_time:987.933333
lavfi.scene_score=0.516479
frame:266  pts:15237120 pts_time:992
lavfi.scene_score=0.256040
frame:267  pts:15366144 pts_time:1000.4
lavfi.scene_score=0.279294
frame:268  pts:15434752 pts_time:1004.866667
lavfi.scene_score=0.041972
frame:269  pts:15436288 pts_time:1004.966667
lavfi.scene_score=0.078305
frame:270  pts:15436800 pts_time:1005
lavfi.scene_score=0.053578
frame:271  pts:15437312 pts_time:1005.033333
lavfi.scene_score=0.171976
frame:272  pts:15439872 pts_time:1005.2
lavfi.scene_score=0.246979
frame:273  pts:15440384 pts_time:1005.233333
lavfi.scene_score=0.081869
frame:274  pts:15494656 pts_time:1008.766667
lavfi.scene_score=0.254640
frame:275  pts:15516672 pts_time:1010.2
lavfi.scene_score=0.312439
frame:276  pts:15610368 pts_time:1016.3
lavfi.scene_score=0.304424
frame:277  pts:15695872 pts_time:1021.866667
lavfi.scene_score=0.349053
frame:278  pts:15806464 pts_time:1029.066667
lavfi.scene_score=0.227201
frame:279  pts:15839232 pts_time:1031.2
lavfi.scene_score=0.271957
frame:280  pts:15923200 pts_time:1036.666667
lavfi.scene_score=0.350877
frame:281  pts:15982080 pts_time:1040.5
lavfi.scene_score=0.290944
frame:282  pts:16048128 pts_time:1044.8
lavfi.scene_score=0.200182
frame:283  pts:16094208 pts_time:1047.8
lavfi.scene_score=0.115250
frame:284  pts:16094720 pts_time:1047.833333
lavfi.scene_score=0.078157
frame:285  pts:16197120 pts_time:1054.5
lavfi.scene_score=0.341537
frame:286  pts:16287232 pts_time:1060.366667
lavfi.scene_score=0.304877
frame:287  pts:16369664 pts_time:1065.733333
lavfi.scene_score=0.260194
frame:288  pts:16389632 pts_time:1067.033333
lavfi.scene_score=0.317214
frame:289  pts:16452096 pts_time:1071.1
lavfi.scene_score=0.294626
frame:290  pts:16467968 pts_time:1072.133333
lavfi.scene_score=0.247964
frame:291  pts:16562688 pts_time:1078.3
lavfi.scene_score=0.248170
frame:292  pts:16683520 pts_time:1086.166667
lavfi.scene_score=0.251524
frame:293  pts:16761344 pts_time:1091.233333
lavfi.scene_score=0.261725
frame:294  pts:16843776 pts_time:1096.6
lavfi.scene_score=0.319276
frame:295  pts:17000448 pts_time:1106.8
lavfi.scene_score=0.307986
frame:296  pts:17135616 pts_time:1115.6
lavfi.scene_score=0.325238
frame:297  pts:17215488 pts_time:1120.8
lavfi.scene_score=0.260817
frame:298  pts:17229824 pts_time:1121.733333
lavfi.scene_score=0.269505
frame:299  pts:17334784 pts_time:1128.566667
lavfi.scene_score=0.269985
frame:300  pts:17437696 pts_time:1135.266667
lavfi.scene_score=0.239334
frame:301  pts:17445888 pts_time:1135.8
lavfi.scene_score=0.199529
frame:302  pts:17534976 pts_time:1141.6
lavfi.scene_score=0.212638
frame:303  pts:17610240 pts_time:1146.5
lavfi.scene_score=0.246404
frame:304  pts:17745408 pts_time:1155.3
lavfi.scene_score=0.386851
frame:305  pts:17839616 pts_time:1161.433333
lavfi.scene_score=0.379922
frame:306  pts:17927168 pts_time:1167.133333
lavfi.scene_score=0.278058
frame:307  pts:18011136 pts_time:1172.6
lavfi.scene_score=0.367015
frame:308  pts:18110976 pts_time:1179.1
lavfi.scene_score=0.393837
frame:309  pts:18176512 pts_time:1183.366667
lavfi.scene_score=0.417445
frame:310  pts:18287616 pts_time:1190.6
lavfi.scene_score=0.459602
frame:311  pts:18357248 pts_time:1195.133333
lavfi.scene_score=0.434916
frame:312  pts:18432000 pts_time:1200
lavfi.scene_score=0.393765
frame:313  pts:18516480 pts_time:1205.5
lavfi.scene_score=0.405985
frame:314  pts:18594816 pts_time:1210.6
lavfi.scene_score=0.492847
frame:315  pts:18693632 pts_time:1217.033333
lavfi.scene_score=0.215726
frame:316  pts:18694144 pts_time:1217.066667
lavfi.scene_score=0.047627
frame:317  pts:18788864 pts_time:1223.233333
lavfi.scene_score=0.234678
frame:318  pts:18859520 pts_time:1227.833333
lavfi.scene_score=0.238688
frame:319  pts:18979840 pts_time:1235.666667
lavfi.scene_score=0.175719
frame:320  pts:18980352 pts_time:1235.7
lavfi.scene_score=0.054635
frame:321  pts:18982400 pts_time:1235.833333
lavfi.scene_score=0.187846
frame:322  pts:18987008 pts_time:1236.133333
lavfi.scene_score=0.300414
frame:323  pts:18987520 pts_time:1236.166667
lavfi.scene_score=0.106314
frame:324  pts:18988544 pts_time:1236.233333
lavfi.scene_score=0.068102
frame:325  pts:18989056 pts_time:1236.266667
lavfi.scene_score=0.056813
frame:326  pts:19036672 pts_time:1239.366667
lavfi.scene_score=0.271334
frame:327  pts:19162112 pts_time:1247.533333
lavfi.scene_score=0.276771
frame:328  pts:19247616 pts_time:1253.1
lavfi.scene_score=0.152296
frame:329  pts:19248128 pts_time:1253.133333
lavfi.scene_score=0.097305
frame:330  pts:19297280 pts_time:1256.333333
lavfi.scene_score=0.355516
frame:331  pts:19380224 pts_time:1261.733333
lavfi.scene_score=0.266180
frame:332  pts:19404288 pts_time:1263.3
lavfi.scene_score=0.184314
frame:333  pts:19420672 pts_time:1264.366667
lavfi.scene_score=0.126269
frame:334  pts:19431936 pts_time:1265.1
lavfi.scene_score=0.091684
frame:335  pts:19443200 pts_time:1265.833333
lavfi.scene_score=0.153432
